<?xml version="1.0" encoding="utf-8"?>
<!-- Generator: Adobe Illustrator 25.2.3, SVG Export Plug-In . SVG Version: 6.00 Build 0)  -->
<svg version="1.1" id="Layer_2" xmlns="http://www.w3.org/2000/svg" xmlns:xlink="http://www.w3.org/1999/xlink" x="0px" y="0px"
	 viewBox="0 0 3000 2000" style="enable-background:new 0 0 3000 2000;" xml:space="preserve">
<style type="text/css">
	.st0{fill:#505C7D;}
	.st1{fill:#63729B;}
	.st2{fill:#DBFFA3;}
	.st3{fill:#E64365;}
	.st4{fill:#FFFFFF;}
	.st5{fill:#323B40;}
	.st6{fill:#E0E0E0;}
	.st7{fill:#AA1C44;}
	.st8{fill:#738AD1;}
	.st9{fill:#8A1737;}
	.st10{fill:#7A7A7A;}
	.st11{fill:#CD1F44;}
	.st12{fill:#FFEEE0;}
	.st13{fill:#AD1A3A;}
	.st14{fill:#D6C7BC;}
	.st15{fill:#1C243B;}
	.st16{fill:#324069;}
	.st17{fill:#999999;}
	.st18{fill:#43558C;}
	.st19{fill:#E6D6CA;}
	.st20{fill:#B01B3A;}
	.st21{fill:#8A8A8A;}
	.st22{fill:#733236;}
	.st23{fill:#873B3F;}
	.st24{fill:#B95D46;}
	.st25{fill:#545F82;}
	.st26{fill:#3D3D3D;}
	.st27{fill:#4D4D4D;}
	.st28{fill:#FF8763;}
	.st29{fill:#7B8DBF;}
	.st30{fill:#241915;}
	.st31{fill:#F0744F;}
	.st32{fill:#911630;}
	.st33{fill:#ABC77F;}
	.st34{fill:#FFF37A;}
	.st35{fill:#6B8CF0;}
	.st36{fill:#87A5FF;}
	.st37{fill:#EBDBCE;}
	.st38{fill:#FF4A70;}
</style>
<g>
	<g>
		<path class="st0" d="M1031.48,1279.67h-7v-127.69c0-24.75,20.14-44.9,44.89-44.9c20.9,0,37.9-17,37.9-37.9V749.1h7v320.09
			c0,24.75-20.14,44.9-44.9,44.9c-20.9,0-37.9,17-37.9,37.9V1279.67z"/>
	</g>
	<g>
		<path class="st0" d="M1086.29,1282.01h-7v-60.88c0-37.62,14.65-72.99,41.26-99.6c25.28-25.28,39.21-58.9,39.21-94.65V751.43h7
			v275.44c0,37.62-14.65,73-41.26,99.6c-25.28,25.28-39.21,58.9-39.21,94.65V1282.01z"/>
	</g>
	<rect x="914.87" y="1215.54" class="st1" width="311.35" height="662.6"/>
	<rect x="953.35" y="1277.34" class="st0" width="250.71" height="36.15"/>
	<rect x="884.55" y="1191.63" class="st1" width="100.87" height="118.36"/>
	<rect x="844.9" y="1247.61" class="st2" width="112.53" height="116.03"/>
	<rect x="1124.19" y="1425.44" class="st3" width="103.78" height="95.62"/>
	<path class="st4" d="M1083.37,1372.38h93.87c0,0-8.16,71.13,10.49,74.63h-90.37C1078.12,1433.02,1083.37,1372.38,1083.37,1372.38z"
		/>
	<rect x="1264.7" y="773" class="st5" width="76.96" height="149.55"/>
	<path class="st5" d="M1419.06,922.55H1187.3c-7,0-12.68-5.68-12.68-12.68l0,0c0-7,5.68-12.68,12.68-12.68h231.76
		c7,0,12.68,5.68,12.68,12.68l0,0C1431.75,916.88,1426.07,922.55,1419.06,922.55z"/>
	<g>
		<polygon class="st6" points="1631.77,921.62 1465.14,921.62 1411.13,809 1577.76,809 		"/>
		<polygon class="st4" points="1356.09,921.62 1522.72,921.62 1576.74,809 1410.11,809 		"/>
		<polygon class="st7" points="1568.61,825.95 1576.74,809 1410.11,809 1401.98,825.95 		"/>
		<polygon class="st3" points="1430.76,878.02 1394.59,878.02 1417.26,831.14 1453.44,831.14 		"/>
		<polygon class="st8" points="1471.73,849.22 1457.77,849.22 1466.52,831.14 1480.48,831.14 		"/>
		<polygon class="st8" points="1494.15,849.22 1480.19,849.22 1488.94,831.14 1502.9,831.14 		"/>
		<polygon class="st8" points="1516.57,849.22 1502.61,849.22 1511.36,831.14 1525.32,831.14 		"/>
		<polygon class="st8" points="1539,849.22 1525.04,849.22 1533.79,831.14 1547.75,831.14 		"/>
		<polygon class="st8" points="1457.97,877.57 1444.01,877.57 1452.76,859.48 1466.72,859.48 		"/>
		<polygon class="st8" points="1480.4,877.57 1466.43,877.57 1475.18,859.48 1489.15,859.48 		"/>
		<polygon class="st8" points="1502.82,877.57 1488.86,877.57 1497.61,859.48 1511.57,859.48 		"/>
		<polygon class="st8" points="1525.24,877.57 1511.28,877.57 1520.03,859.48 1533.99,859.48 		"/>
		<polygon class="st8" points="1443.9,906.42 1429.94,906.42 1438.69,888.33 1452.65,888.33 		"/>
		<polygon class="st8" points="1466.32,906.42 1452.36,906.42 1461.11,888.33 1475.07,888.33 		"/>
		<polygon class="st3" points="1488.74,906.42 1474.78,906.42 1483.53,888.33 1497.49,888.33 		"/>
		<polygon class="st3" points="1511.16,906.42 1497.2,906.42 1505.95,888.33 1519.91,888.33 		"/>
		<path class="st9" d="M1545.74,815.19c-0.85,1.67-2.39,2.59-3.44,2.05c-1.06-0.53-1.23-2.32-0.38-3.99
			c0.84-1.67,2.39-2.59,3.44-2.05C1546.41,811.74,1546.59,813.53,1545.74,815.19z"/>
		<path class="st9" d="M1523.32,815.19c-0.84,1.67-2.39,2.59-3.44,2.05c-1.06-0.53-1.23-2.32-0.38-3.99
			c0.84-1.67,2.39-2.59,3.44-2.05C1523.99,811.74,1524.16,813.53,1523.32,815.19z"/>
		<path class="st9" d="M1500.9,815.19c-0.84,1.67-2.39,2.59-3.44,2.05c-1.06-0.53-1.23-2.32-0.38-3.99
			c0.84-1.67,2.39-2.59,3.44-2.05C1501.57,811.74,1501.74,813.53,1500.9,815.19z"/>
		<path class="st9" d="M1478.48,815.19c-0.85,1.67-2.39,2.59-3.44,2.05c-1.06-0.53-1.23-2.32-0.38-3.99
			c0.84-1.67,2.39-2.59,3.44-2.05C1479.15,811.74,1479.32,813.53,1478.48,815.19z"/>
		<path class="st9" d="M1456.06,815.19c-0.84,1.67-2.39,2.59-3.44,2.05c-1.06-0.53-1.23-2.32-0.38-3.99
			c0.84-1.67,2.39-2.59,3.44-2.05S1456.9,813.53,1456.06,815.19z"/>
		<path class="st9" d="M1433.63,815.19c-0.84,1.67-2.39,2.59-3.44,2.05c-1.06-0.53-1.23-2.32-0.38-3.99
			c0.85-1.67,2.39-2.59,3.44-2.05C1434.31,811.74,1434.48,813.53,1433.63,815.19z"/>
		<path class="st10" d="M1550.52,798.66c-5.53,0-10.02,4.5-10.02,10.02c0,2.37,0.84,4.67,2.38,6.48c0.2,0.24,0.49,0.36,0.78,0.36
			c0.23,0,0.47-0.08,0.66-0.24c0.43-0.36,0.48-1.01,0.12-1.44c-1.22-1.44-1.89-3.27-1.89-5.16c0-4.4,3.58-7.98,7.98-7.98
			c4.4,0,7.98,3.58,7.98,7.98h2.04C1560.54,803.16,1556.04,798.66,1550.52,798.66z"/>
		<path class="st10" d="M1528.1,798.66c-5.53,0-10.02,4.5-10.02,10.02c0,2.37,0.84,4.67,2.38,6.48c0.2,0.24,0.49,0.36,0.78,0.36
			c0.23,0,0.47-0.08,0.66-0.24c0.43-0.36,0.48-1.01,0.12-1.44c-1.22-1.44-1.89-3.27-1.89-5.16c0-4.4,3.58-7.98,7.98-7.98
			c4.4,0,7.98,3.58,7.98,7.98h2.04C1538.12,803.16,1533.62,798.66,1528.1,798.66z"/>
		<path class="st10" d="M1505.67,798.66c-5.53,0-10.02,4.5-10.02,10.02c0,2.37,0.84,4.67,2.38,6.48c0.2,0.24,0.49,0.36,0.78,0.36
			c0.23,0,0.47-0.08,0.66-0.24c0.43-0.36,0.48-1.01,0.12-1.44c-1.22-1.44-1.89-3.27-1.89-5.16c0-4.4,3.58-7.98,7.98-7.98
			c4.4,0,7.98,3.58,7.98,7.98h2.04C1515.69,803.16,1511.2,798.66,1505.67,798.66z"/>
		<path class="st10" d="M1483.25,798.66c-5.53,0-10.02,4.5-10.02,10.02c0,2.37,0.84,4.67,2.38,6.48c0.2,0.24,0.49,0.36,0.78,0.36
			c0.23,0,0.47-0.08,0.66-0.24c0.43-0.36,0.48-1.01,0.12-1.44c-1.22-1.44-1.89-3.27-1.89-5.16c0-4.4,3.58-7.98,7.98-7.98
			c4.4,0,7.98,3.58,7.98,7.98h2.04C1493.27,803.16,1488.78,798.66,1483.25,798.66z"/>
		<path class="st10" d="M1460.83,798.66c-5.53,0-10.02,4.5-10.02,10.02c0,2.37,0.84,4.67,2.38,6.48c0.2,0.24,0.49,0.36,0.78,0.36
			c0.23,0,0.47-0.08,0.66-0.24c0.43-0.36,0.48-1.01,0.12-1.44c-1.22-1.44-1.89-3.27-1.89-5.16c0-4.4,3.58-7.98,7.98-7.98
			c4.4,0,7.98,3.58,7.98,7.98h2.04C1470.85,803.16,1466.36,798.66,1460.83,798.66z"/>
		<path class="st10" d="M1438.41,798.66c-5.53,0-10.02,4.5-10.02,10.02c0,2.37,0.84,4.67,2.38,6.48c0.2,0.24,0.49,0.36,0.78,0.36
			c0.23,0,0.47-0.08,0.66-0.24c0.43-0.36,0.48-1.01,0.12-1.44c-1.22-1.44-1.89-3.27-1.89-5.16c0-4.4,3.58-7.98,7.98-7.98
			c4.4,0,7.98,3.58,7.98,7.98h2.04C1448.43,803.16,1443.94,798.66,1438.41,798.66z"/>
	</g>
	<g>
		<path class="st11" d="M817.1,523.15H647.24c-22.85,0-41.44,18.59-41.44,41.44c0,22.85,18.59,41.45,41.44,41.45H817.1
			c3.38,0,6.11-2.74,6.11-6.11v-70.66C823.21,525.89,820.48,523.15,817.1,523.15z"/>
		<path class="st12" d="M938.04,528.59c-12.57,18.68-10.53,60.47-1.02,72.02l-172.91,2.38l-16.99-8.15l-11.21-16.31l-4.08-20.38
			l13.59-22.42l22.08-9.85L938.04,528.59z"/>
		<path class="st13" d="M736.25,564.6L736.25,564.6c0-19.51,15.82-35.33,35.33-35.33h175.97c0-3.38-2.74-6.11-6.11-6.11H771.58
			c-22.85,0-41.44,18.59-41.44,41.44c0,22.85,18.59,41.45,41.44,41.45h169.86c3.38,0,6.11-2.74,6.11-6.11H771.58
			C752.06,599.93,736.25,584.11,736.25,564.6z"/>
		<path class="st3" d="M713.83,564.6L713.83,564.6c0-21.6,14.11-39.33,32.11-41.24c1.83-0.19,3.22-1.71,3.22-3.55l0,0
			c0-2.1-1.81-3.81-3.9-3.58c-21.03,2.31-37.54,23.12-37.54,48.36c0,25.24,16.51,46.05,37.54,48.37c2.09,0.23,3.9-1.47,3.9-3.58v0
			c0-1.84-1.4-3.35-3.22-3.55C727.93,603.93,713.83,586.19,713.83,564.6z"/>
		<path class="st3" d="M624.14,564.6L624.14,564.6c0-21.6,14.1-39.33,32.11-41.24c1.83-0.19,3.22-1.71,3.22-3.55l0,0
			c0-2.1-1.81-3.81-3.9-3.58c-21.03,2.31-37.54,23.12-37.54,48.36c0,25.24,16.51,46.05,37.54,48.37c2.09,0.23,3.9-1.47,3.9-3.58v0
			c0-1.84-1.4-3.35-3.22-3.55C638.25,603.93,624.14,586.19,624.14,564.6z"/>
		<g>
			<path class="st14" d="M929.3,562.85c0.05-1.57,0.13-3.14,0.25-4.7l-130.8,0.34L929.3,562.85z"/>
			<path class="st14" d="M929.28,568.94l-69.72-1.62l69.83,4.66C929.34,570.97,929.31,569.95,929.28,568.94z"/>
		</g>
	</g>
	<g>
		<rect x="745.84" y="648.08" class="st15" width="209.18" height="273.39"/>
		<rect x="745.84" y="648.08" class="st16" width="51.78" height="273.39"/>
		<ellipse class="st17" cx="771.73" cy="690.37" rx="18.29" ry="23.99"/>
		<path class="st16" d="M771.73,708.15c-6.55,0-12.08-8.14-12.08-17.78c0-9.64,5.53-17.78,12.08-17.78
			c6.55,0,12.08,8.14,12.08,17.78C783.81,700.01,778.28,708.15,771.73,708.15z"/>
		<rect x="753.78" y="737.49" class="st18" width="35.9" height="117.02"/>
	</g>
	<g>
		<rect x="857.79" y="648.08" class="st15" width="209.18" height="273.39"/>
		<rect x="857.79" y="648.08" class="st16" width="51.78" height="273.39"/>
		<ellipse class="st17" cx="883.68" cy="690.37" rx="18.29" ry="23.99"/>
		<path class="st16" d="M883.68,708.15c-6.55,0-12.08-8.14-12.08-17.78c0-9.64,5.53-17.78,12.08-17.78
			c6.55,0,12.08,8.14,12.08,17.78C895.76,700.01,890.22,708.15,883.68,708.15z"/>
		<rect x="865.73" y="737.49" class="st18" width="35.9" height="117.02"/>
	</g>
	<g>
		<path class="st19" d="M631.94,614.26c-9.06,4.92-7.25,20.37,0,25.2h202.45l-8.28-27.79L631.94,614.26z"/>
		<path class="st11" d="M631.94,614.26h204.01v-7.77H631.94c-2.14,0-3.88,1.74-3.88,3.88l0,0
			C628.06,612.52,629.79,614.26,631.94,614.26z"/>
		<path class="st11" d="M631.94,647.23h204.01v-7.77H631.94c-2.14,0-3.88,1.74-3.88,3.88l0,0
			C628.06,645.49,629.79,647.23,631.94,647.23z"/>
		<path class="st12" d="M1126.03,612.06c-9.45,10.23-4.79,28.22-0.26,30.81L818.86,643l-8.8-18.64l13.2-14.76h13.98L1126.03,612.06z
			"/>
		<path class="st20" d="M830.62,638.94c-7.91,0-14.35-5.42-14.35-12.08c0-6.66,6.44-12.08,14.35-12.08h294.94
			c2.29,0,4.14-1.85,4.14-4.14l0,0c0-2.29-1.85-4.14-4.14-4.14H829.15c-10.9,0-20.47,8.22-21.12,19.11
			c-0.71,11.82,8.66,21.62,20.33,21.62h297.21c2.29,0,4.14-1.85,4.14-4.14v0c0-2.29-1.85-4.14-4.14-4.14H830.62z"/>
		<path class="st21" d="M654.98,658.19c-10.42,0-18.9-14.05-18.9-31.33c0-17.27,8.48-31.33,18.9-31.33c4.53,0,8.89,2.64,12.29,7.45
			c0.71,1,0.55,2.45-0.35,3.23c-0.38,0.33-0.83,0.49-1.28,0.49c-0.61,0-1.22-0.3-1.63-0.88c-1.83-2.59-4.89-5.69-9.03-5.69
			c-8.14,0-14.76,11.99-14.76,26.73c0,14.74,6.62,26.73,14.76,26.73c4.16,0,7.23-3.12,9.07-5.74c0.41-0.58,1.02-0.89,1.63-0.89
			c0.45,0,0.89,0.16,1.27,0.49c0.9,0.78,1.06,2.23,0.36,3.23C663.91,655.52,659.53,658.19,654.98,658.19z"/>
		<path class="st21" d="M677.76,658.19c-10.42,0-18.9-14.05-18.9-31.33c0-17.27,8.48-31.33,18.9-31.33c4.53,0,8.89,2.64,12.29,7.45
			c0.71,1,0.55,2.45-0.35,3.23c-0.38,0.33-0.83,0.49-1.28,0.49c-0.61,0-1.22-0.3-1.63-0.88c-1.83-2.59-4.89-5.69-9.03-5.69
			c-8.14,0-14.76,11.99-14.76,26.73c0,14.74,6.62,26.73,14.76,26.73c4.16,0,7.23-3.12,9.07-5.74c0.41-0.58,1.02-0.89,1.63-0.89
			c0.45,0,0.89,0.16,1.27,0.49c0.9,0.78,1.06,2.23,0.36,3.23C686.7,655.52,682.31,658.19,677.76,658.19z"/>
		<path class="st21" d="M700.54,658.19c-10.42,0-18.9-14.05-18.9-31.33c0-17.27,8.48-31.33,18.9-31.33c4.53,0,8.89,2.64,12.29,7.45
			c0.71,1,0.55,2.45-0.35,3.23c-0.38,0.33-0.83,0.49-1.28,0.49c-0.61,0-1.22-0.3-1.63-0.88c-1.83-2.59-4.89-5.69-9.03-5.69
			c-8.14,0-14.76,11.99-14.76,26.73c0,14.74,6.62,26.73,14.76,26.73c4.16,0,7.23-3.12,9.07-5.74c0.41-0.58,1.02-0.89,1.63-0.89
			c0.45,0,0.89,0.16,1.27,0.49c0.9,0.78,1.06,2.23,0.36,3.23C709.48,655.52,705.1,658.19,700.54,658.19z"/>
		<path class="st21" d="M723.33,658.19c-10.42,0-18.9-14.05-18.9-31.33c0-17.27,8.48-31.33,18.9-31.33c4.53,0,8.89,2.64,12.29,7.45
			c0.71,1,0.55,2.45-0.35,3.23c-0.38,0.33-0.83,0.49-1.28,0.49c-0.61,0-1.22-0.3-1.63-0.88c-1.83-2.59-4.89-5.69-9.03-5.69
			c-8.14,0-14.76,11.99-14.76,26.73c0,14.74,6.62,26.73,14.76,26.73c4.16,0,7.23-3.12,9.07-5.74c0.41-0.58,1.02-0.89,1.63-0.89
			c0.45,0,0.89,0.16,1.27,0.49c0.9,0.78,1.06,2.23,0.36,3.23C732.26,655.52,727.88,658.19,723.33,658.19z"/>
		<path class="st21" d="M746.11,658.19c-10.42,0-18.9-14.05-18.9-31.33c0-17.27,8.48-31.33,18.9-31.33c4.53,0,8.89,2.64,12.29,7.45
			c0.71,1,0.55,2.45-0.35,3.23c-0.38,0.33-0.83,0.49-1.28,0.49c-0.61,0-1.22-0.3-1.63-0.88c-1.83-2.59-4.89-5.69-9.03-5.69
			c-8.14,0-14.76,11.99-14.76,26.73c0,14.74,6.62,26.73,14.76,26.73c4.16,0,7.23-3.12,9.07-5.74c0.41-0.58,1.02-0.89,1.63-0.89
			c0.45,0,0.89,0.16,1.27,0.49c0.9,0.78,1.06,2.23,0.36,3.23C755.04,655.52,750.66,658.19,746.11,658.19z"/>
		<path class="st21" d="M768.89,658.19c-10.42,0-18.9-14.05-18.9-31.33c0-17.27,8.48-31.33,18.9-31.33c4.53,0,8.89,2.64,12.29,7.45
			c0.71,1,0.55,2.45-0.35,3.23c-0.38,0.33-0.83,0.49-1.28,0.49c-0.61,0-1.22-0.3-1.63-0.88c-1.83-2.59-4.89-5.69-9.03-5.69
			c-8.14,0-14.76,11.99-14.76,26.73c0,14.74,6.62,26.73,14.76,26.73c4.16,0,7.23-3.12,9.07-5.74c0.41-0.58,1.02-0.89,1.63-0.89
			c0.45,0,0.89,0.16,1.27,0.49c0.9,0.78,1.06,2.23,0.36,3.23C777.83,655.52,773.44,658.19,768.89,658.19z"/>
		<path class="st21" d="M791.67,658.19c-10.42,0-18.9-14.05-18.9-31.33c0-17.27,8.48-31.33,18.9-31.33c4.53,0,8.89,2.64,12.29,7.45
			c0.71,1,0.55,2.45-0.35,3.23c-0.38,0.33-0.83,0.49-1.28,0.49c-0.61,0-1.22-0.3-1.63-0.88c-1.83-2.59-4.89-5.69-9.03-5.69
			c-8.14,0-14.76,11.99-14.76,26.73c0,14.74,6.62,26.73,14.76,26.73c4.16,0,7.23-3.12,9.07-5.74c0.41-0.58,1.02-0.89,1.63-0.89
			c0.45,0,0.89,0.16,1.27,0.49c0.9,0.78,1.06,2.23,0.36,3.23C800.61,655.52,796.23,658.19,791.67,658.19z"/>
		<path class="st21" d="M814.46,658.19c-10.42,0-18.9-14.05-18.9-31.33c0-17.27,8.48-31.33,18.9-31.33c4.53,0,8.89,2.64,12.29,7.45
			c0.71,1,0.55,2.45-0.35,3.23c-0.38,0.33-0.83,0.49-1.28,0.49c-0.61,0-1.22-0.3-1.63-0.88c-1.83-2.59-4.89-5.69-9.03-5.69
			c-8.14,0-14.76,11.99-14.76,26.73c0,14.74,6.62,26.73,14.76,26.73c4.16,0,7.23-3.12,9.07-5.74c0.41-0.58,1.02-0.89,1.63-0.89
			c0.45,0,0.89,0.16,1.27,0.49c0.9,0.78,1.06,2.23,0.36,3.23C823.39,655.52,819.01,658.19,814.46,658.19z"/>
	</g>
	<g>
		<path class="st0" d="M983.09,1250.52h-7v-229.37c0-42.14,16.41-81.76,46.21-111.56c28.48-28.48,44.16-66.34,44.16-106.62V742.1h7
			v60.87c0,42.14-16.41,81.76-46.21,111.56c-28.48,28.48-44.16,66.34-44.16,106.62V1250.52z"/>
	</g>
	<path class="st5" d="M1619.78,778.25H986.59c-9.66,0-17.49-7.83-17.49-17.49V330.47c0-9.66,7.83-17.49,17.49-17.49h633.19
		c9.66,0,17.49,7.83,17.49,17.49v430.29C1637.27,770.42,1629.44,778.25,1619.78,778.25z"/>
	<path class="st1" d="M986.59,771.25c-5.79,0-10.49-4.71-10.49-10.49V330.47c0-5.79,4.71-10.49,10.49-10.49h633.19
		c5.79,0,10.49,4.71,10.49,10.49v430.29c0,5.79-4.71,10.49-10.49,10.49H986.59z"/>
	<g>
		<polygon class="st22" points="984.06,1878.14 944.13,1878.14 935.89,1039.14 992.3,1039.14 		"/>
		<polygon class="st22" points="1261.59,1878.14 1221.66,1878.14 1213.41,1039.14 1269.83,1039.14 		"/>
		<polygon class="st22" points="1806.06,1878.14 1766.13,1878.14 1757.89,1039.14 1814.3,1039.14 		"/>
		<path class="st23" d="M2083.96,1040.97H874.52c-39.46,0-71.44-31.99-71.44-71.44l0,0H2155.4l0,0
			C2155.4,1008.99,2123.42,1040.97,2083.96,1040.97z"/>
		<path class="st24" d="M2207.15,979.6h-1454c-15.93,0-28.85-12.92-28.85-28.85v0c0-15.93,12.92-28.85,28.85-28.85h1454
			c15.93,0,28.85,12.92,28.85,28.85v0C2236.01,966.69,2223.09,979.6,2207.15,979.6z"/>
		<polygon class="st22" points="2083.59,1878.14 2043.66,1878.14 2035.42,1039.14 2091.83,1039.14 		"/>
	</g>
	<path class="st25" d="M1699.66,1305.33l100.28-104.95l317.18-300.85l30.32-265.87l74.63,7l-30.32,272.87l2.33,181.91v144.6
		c0,0-27.99,39.65-39.65,44.31c-11.66,4.66-149.26,32.65-149.26,32.65L1699.66,1305.33z"/>
	<path class="st26" d="M1966.75,1878.2h-47.36c-3.66,0-6.64-2.97-6.64-6.64v-41.47c0-3.66,2.97-6.64,6.64-6.64h47.36
		c3.66,0,6.64,2.97,6.64,6.64v41.47C1973.38,1875.23,1970.41,1878.2,1966.75,1878.2z"/>
	
		<ellipse transform="matrix(0.2298 -0.9732 0.9732 0.2298 -405.2888 3165.9185)" class="st26" cx="1797.51" cy="1839.01" rx="39.81" ry="39.81"/>
	
		<ellipse transform="matrix(0.2298 -0.9732 0.9732 0.2298 -405.2889 3165.9182)" class="st27" cx="1797.51" cy="1839.01" rx="24.47" ry="24.47"/>
	
		<ellipse transform="matrix(0.2298 -0.9732 0.9732 0.2298 -181.0563 3449.2485)" class="st26" cx="2088.63" cy="1839.01" rx="39.81" ry="39.81"/>
	
		<ellipse transform="matrix(0.2298 -0.9732 0.9732 0.2298 -181.0565 3449.248)" class="st27" cx="2088.63" cy="1839.01" rx="24.47" ry="24.47"/>
	<path class="st21" d="M2138.39,1837.15v-13.06c0-25.08-20.33-45.41-45.41-45.41h-54.74c-42.26,0-76.51-34.26-76.51-76.51v-346.48
		h-37.32v346.48c0,42.26-34.26,76.51-76.51,76.51h-54.74c-25.08,0-45.41,20.33-45.41,45.41v13.06h67.49
		c6.7,0,12.13-5.43,12.13-12.13l0,0c0-6.7,5.43-12.13,12.13-12.13h206.67c6.64,0,12.05,5.34,12.13,11.98l0.01,0.7
		c0.08,6.67,5.53,12.02,12.2,11.98L2138.39,1837.15z"/>
	<path class="st10" d="M1943.07,1779.09L1943.07,1779.09c-21.99,0-39.81,17.82-39.81,39.81v19.08h79.62v-19.08
		C1982.88,1796.91,1965.06,1779.09,1943.07,1779.09z"/>
	<path class="st10" d="M1873.4,1360.66h139.34c22.45,0,40.64-18.2,40.64-40.64l0,0h-220.62l0,0
		C1832.76,1342.46,1850.96,1360.66,1873.4,1360.66z"/>
	<path class="st28" d="M1114.75,1884.18c0,0,270.81-2.97,274.92-2.64c4.11,0.33,5.82-23.19,2.71-41.23s-19.13-83.79-20.1-119.27
		c-31.31,3.71-67.14,7.54-79.59,1.75c1.42,36.18-1.86,88.08-18.31,92.15C1257.92,1819,1076.63,1880.98,1114.75,1884.18z"/>
	<path class="st29" d="M1969.21,1328.87c-116.24,0-262.19-3.52-270.65-3.72c-11.59-0.28-20.75-9.91-20.47-21.5
		c0.28-11.59,9.86-20.87,21.5-20.47c2.86,0.07,287.1,6.91,379.64,1.77c44.33-2.46,67.59-6.19,79.91-20.71
		c16.4-19.34,19.66-65.12,10.59-148.47c-19.76-181.45-2.81-324.73,60.46-511.03c3.73-10.98,15.66-16.85,26.63-13.12
		c10.98,3.73,16.85,15.65,13.13,26.63c-61.12,179.97-77.52,318.19-58.48,492.98c10.85,99.63,5.16,150.14-20.31,180.16
		c-24.23,28.57-62.32,32.85-109.59,35.47C2055.17,1328.33,2014.43,1328.87,1969.21,1328.87z"/>
	<path class="st11" d="M1890.02,957.54c-77.84-240.51-238.76-357.7-268.49-355.95c-29.74,1.75-66.47,33.23-66.47,82.21
		c0,48.98,69.97,318.35,69.97,318.35s-300.85,50.73-321.84,73.46c-20.99,22.74-20.99,662.93-20.99,662.93
		c43.73,26.24,108.45-8.75,108.45-8.75c0-41.98,34.98-258.87,55.97-363.82s20.99-143.43,20.99-143.43s236.14-5.25,265.87,7
		c29.74,12.24,127.69,71.72,288.61,54.22s118.94-190.66,118.94-190.66L1890.02,957.54z"/>
	<path class="st28" d="M1956.78,1298.33c-3.5,17.49-24.49,61.8-34.98,77.55c-10.49,15.74-2.92,39.65-13.41,55.97
		c-10.49,16.33,7,20.99,18.07,2.33c-4.49,23.35,2.43,63.29,5.85,80.43c0.93,4.66,7.54,5.07,8.91,0.52
		c2.38-7.89,2.96-21.1,3.31-36.05c1.75,36.73,10.49,50.73,17.49,49.56c7-1.17,4.08-22.74,4.08-22.74
		c9.91,13.41,15.74-4.08,15.74-16.91c0-12.83,1.75-36.73,1.75-36.73c-0.58,18.07,9.91,27.99,12.24,15.74
		c2.33-12.24-6.41-36.73,0.58-58.89c7-22.16,18.07-47.81,18.07-69.38c0-21.57,0-41.4,0-41.4H1956.78z"/>
	<path class="st12" d="M1956.25,608.48c-23.37,32.47-74.97,49.96-81.97,61.33c-7,11.37,7,79.59,28.86,144.3
		c21.86,64.72,13.99,136.43-13.12,143.43c-13.12,40.23,55.97,91.83,55.97,91.83s111.07-102.33,112.82-109.32
		c1.75-7-1.75-363.82-1.75-363.82l-18.37-6.12L1956.25,608.48z"/>
	<path class="st15" d="M2021.41,592.72c-83.28,99.82-39.56,395.43-90.28,451.4c0,5.25,22.74,29.74,22.74,29.74l-13.99,223.89
		c27.99,13.99,80.46,8.75,80.46,8.75c0-40.23,59.47-220.39,68.22-206.4c8.75,13.99,66.47,29.74,66.47,29.74
		c-38.48-125.94-1.75-349.83,13.99-402.3c15.74-52.47,19.24-181.91,19.24-181.91l-148.68-5.25L2021.41,592.72z"/>
	<path class="st30" d="M2308.95,319.97c13.12-31.48,49.85-19.24,49.85-19.24c-13.12-10.49-29.74-4.37-29.74-4.37
		c24.49-20.99,76.96,1.75,86.58,38.48s-15.74,53.35,6.12,95.33c21.86,41.98-8.75,83.08-20.99,122.44
		c-12.24,39.36,59.47,85.71,47.23,145.18c-12.24,59.47-29.74,64.72-29.74,64.72c-23.61,3.5-37.61,2.62-37.61,2.62
		c20.12-27.99,17.49-49.85,17.49-49.85c-12.24,33.23-21.86,44.6-22.74,47.23c-15.74,8.75-55.1,5.25-52.47,3.5
		c12.24-62.09-21.86-97.08-32.36-103.2c25.36,65.59,12.24,104.95,12.24,104.95c-27.11,12.24-54.22,5.25-60.35,3.5
		c-37.61-30.61-17.49-75.21-17.49-75.21c-20.12,30.61-9.62,66.47,8.75,75.21c-40.23,9.62-93.58,6.12-83.96-40.23
		c9.62-46.35,17.19-98.88-10.64-145.21c-27.84-46.33,15.02-188.01,15.02-188.01L2308.95,319.97z"/>
	<path class="st28" d="M2350.42,354.16c-11.32-26.72-63.41-55.98-79.83-53.41c-8.5,1.33-28.44,7.62-44.51,3.58
		c-18.49-4.65-44.87-31.72-47.76-28.19c-2.88,3.52-4.06,23.96-8.12,25.75c-6.38,3.56-50.47,10.65-61.52,13.67
		c-11.05,3.02-23.76,15.96-19.51,34.58s14.94,39.51,13.33,55.27c-1.61,15.76-31.89,83.09-60.69,122.42
		c-28.79,39.33-85.56,80.66-85.56,80.66s64.01-13.99,65.16-15.75c23.6-33.45,90.62-37.56,117.72-6.91
		c-1.26-18.73,4.52-38.6,12.91-56.89c14.12-30.78,34.27-48.07,67.05-56.57c13.53-3.51,27.43-10.62,30.64-26.62
		c3.67-18.29-9.47-29.93-22.64-31.75C2253.95,354.27,2294.84,334.26,2350.42,354.16z"/>
	
		<ellipse transform="matrix(0.9917 -0.1288 0.1288 0.9917 -23.9084 289.7937)" class="st30" cx="2228.82" cy="329.76" rx="8.42" ry="3.94"/>
	<path class="st30" d="M2215.39,330.72c-0.03-0.23-0.04-0.46-0.04-0.69c0.01-0.58,0.49-1.04,1.07-1.02
		c0.58,0.01,1.04,0.47,1.03,1.08c-0.02,0.94,0.58,2.13,1.61,3.13c1.78,1.72,4.48,2.6,7.4,2.42c0.58-0.04,1.09,0.39,1.11,0.98
		c0.04,0.58-0.41,1.08-0.98,1.11c-3.51,0.21-6.78-0.88-8.98-3C2216.35,333.51,2215.57,332.09,2215.39,330.72z"/>
	<path class="st30" d="M2251.27,345.59c11.49-18.47,7.89-34.32,8.6-33.97C2275.05,316.48,2274.11,327.85,2251.27,345.59z"/>
	<path class="st30" d="M2269.65,316.16c-3.33-5.3-9.78-4.54-9.78-4.54C2265.15,308.14,2270.05,308.54,2269.65,316.16z"/>
	<path class="st30" d="M2144.68,344.44c-0.02-0.12-0.01-0.24,0.02-0.37c0.03-0.12,2.74-12.37,0.04-33.15
		c-0.07-0.58,0.33-1.1,0.9-1.18c0.57-0.07,1.1,0.33,1.18,0.9c2.75,21.19,0.04,33.38-0.07,33.89c-0.13,0.56-0.69,0.92-1.26,0.79
		C2145.04,345.23,2144.73,344.86,2144.68,344.44z"/>
	<path class="st31" d="M2125.04,410.49c-0.03-0.22,0.01-0.46,0.14-0.67c0.29-0.5,0.94-0.67,1.44-0.38
		c0.3,0.18,30.04,17.64,41.6,23.98c8.96,4.91,13.69,2.79,21.53-0.73c1.96-0.88,4.1-1.84,6.53-2.79c0.41-0.16,0.88-0.05,1.17,0.29
		c0.29,0.33,0.35,0.81,0.13,1.2c-1.37,2.5-2.42,10.19,0.37,16.63c1.97,4.53,5.36,7.43,10.09,8.63c0.56,0.14,0.9,0.72,0.76,1.28
		c-0.14,0.56-0.71,0.9-1.27,0.76c-5.31-1.35-9.29-4.74-11.5-9.83c-2.4-5.52-2.26-12.08-1.19-16.09c-1.51,0.63-2.91,1.26-4.23,1.85
		c-8.14,3.65-13.52,6.06-23.4,0.65c-11.59-6.35-41.35-23.83-41.65-24C2125.25,411.09,2125.08,410.8,2125.04,410.49z"/>
	<path class="st31" d="M2241.48,448.93c0.61-8.71-3.26-16.13-10.08-19.31c-7.89-3.68-17.84-0.85-26.62,7.59
		c-0.25,0.24-0.35,0.57-0.31,0.89c0.03,0.22,0.12,0.43,0.28,0.59c0.4,0.42,1.07,0.43,1.48,0.03c4.96-4.77,10.28-7.61,15.28-8.36
		c3.88,1.75,4.67,5.62,3.73,8.51c-1.09,3.36-4.87,6.72-11.94,5.1c-0.56-0.13-1.13,0.22-1.26,0.79c-0.03,0.13-0.03,0.25-0.02,0.37
		c0.06,0.42,0.37,0.79,0.81,0.89c7.91,1.81,12.93-1.96,14.4-6.5c0.99-3.07,0.38-6.83-2.3-9.35c1.95,0.1,3.82,0.54,5.57,1.36
		c6.01,2.81,9.41,9.42,8.88,17.27c-0.05,0.57,0.4,1.08,0.98,1.12C2240.94,449.95,2241.44,449.51,2241.48,448.93z"/>
	<path class="st16" d="M2018.59,672.43c-0.03,0-0.05,0-0.08,0c-0.97-0.04-1.71-0.86-1.67-1.82c1.07-24.63,14-59.31,39.85-77.26
		c17.96-12.47,38.87-14.97,62.14-7.42c0.92,0.3,1.42,1.28,1.12,2.2c-0.29,0.92-1.26,1.42-2.2,1.12
		c-22.17-7.19-42.04-4.85-59.06,6.96c-24.87,17.27-37.31,50.74-38.35,74.53C2020.29,671.69,2019.52,672.43,2018.59,672.43z"/>
	<path class="st16" d="M1953.87,1075.61c-0.1,0-0.21-0.01-0.31-0.03c-0.95-0.17-1.58-1.08-1.41-2.03
		c10.78-59.31,17.96-81.79,30.69-115.75c1.35-4.75,10.49-114.91,13.89-156.95c0.08-0.96,0.92-1.66,1.89-1.6
		c0.96,0.08,1.68,0.92,1.6,1.89c-0.5,6.18-12.28,151.55-14.05,157.76c-12.7,33.89-19.84,56.25-30.57,115.28
		C1955.44,1075.01,1954.7,1075.61,1953.87,1075.61z"/>
	<path class="st16" d="M2085.05,1097.47c-0.21,0-0.43-0.04-0.64-0.12c-0.9-0.35-1.35-1.36-0.99-2.27c0.26-0.67,26.15-67.23,27-79.08
		c0.87-12.14,22.69-202.74,23.62-210.85c0.11-0.96,0.99-1.66,1.94-1.54c0.96,0.11,1.65,0.98,1.54,1.94
		c-0.23,1.98-22.75,198.63-23.61,210.7c-0.88,12.37-26.15,77.34-27.23,80.1C2086.41,1097.05,2085.75,1097.47,2085.05,1097.47z"/>
	<path class="st31" d="M1926.46,1429.11c-0.01,0-0.01,0-0.02,0c-0.58-0.01-1.04-0.48-1.03-1.06c0.29-20.87,5.52-42.86,5.57-43.08
		c0.13-0.56,0.71-0.91,1.26-0.78c0.56,0.14,0.91,0.7,0.78,1.26c-0.05,0.22-5.22,22-5.51,42.63
		C1927.51,1428.65,1927.04,1429.11,1926.46,1429.11z"/>
	<path class="st31" d="M1944.83,1478.96c-0.56,0-1.02-0.44-1.05-1c-0.01-0.13-0.57-12.79,0.59-29.86c0.04-0.58,0.47-1.02,1.12-0.98
		c0.58,0.04,1.01,0.54,0.98,1.12c-1.15,16.93-0.59,29.49-0.58,29.62c0.03,0.58-0.42,1.07-1,1.1
		C1944.86,1478.96,1944.84,1478.96,1944.83,1478.96z"/>
	<path class="st31" d="M1965.23,1504.91c-0.48,0-0.92-0.34-1.02-0.83c-0.06-0.29-6.12-29.03-2.93-53.12
		c0.08-0.57,0.59-0.98,1.18-0.9c0.57,0.08,0.98,0.6,0.9,1.18c-3.15,23.74,2.84,52.12,2.9,52.41c0.12,0.57-0.24,1.13-0.81,1.25
		C1965.38,1504.9,1965.31,1504.91,1965.23,1504.91z"/>
	<path class="st31" d="M1937.68,1430.02c-0.05,0-0.11,0-0.17-0.01c-1.25-0.07-3.5-0.99-4.5-6.43c-0.11-0.57,0.27-1.12,0.84-1.22
		c0.57-0.11,1.12,0.27,1.22,0.84c0.63,3.41,1.77,4.68,2.55,4.72c0.84,0.02,2.19-1.29,2.99-3.95c0.16-0.55,0.74-0.88,1.31-0.7
		c0.56,0.17,0.87,0.75,0.7,1.31C1941.61,1427.95,1939.73,1430.02,1937.68,1430.02z"/>
	<path class="st31" d="M1955.61,1433.23c-0.05,0-0.11,0-0.17-0.01c-1.25-0.07-3.5-0.99-4.5-6.43c-0.11-0.57,0.27-1.12,0.84-1.22
		c0.57-0.11,1.12,0.27,1.22,0.84c0.63,3.41,1.77,4.68,2.55,4.72c0.84,0.02,2.19-1.29,2.99-3.95c0.16-0.55,0.74-0.88,1.31-0.7
		c0.56,0.17,0.87,0.75,0.7,1.31C1959.54,1431.16,1957.66,1433.23,1955.61,1433.23z"/>
	<path class="st31" d="M1970.77,1434.25c-0.05,0-0.11,0-0.17-0.01c-1.25-0.07-3.5-0.99-4.5-6.43c-0.11-0.57,0.27-1.12,0.84-1.22
		c0.57-0.11,1.12,0.27,1.22,0.84c0.63,3.41,1.77,4.68,2.55,4.72c0.84,0.02,2.19-1.29,2.99-3.95c0.16-0.55,0.74-0.88,1.31-0.7
		c0.56,0.17,0.87,0.75,0.7,1.31C1974.7,1432.18,1972.82,1434.25,1970.77,1434.25z"/>
	<path class="st31" d="M1986.66,1434.25c-0.05,0-0.11,0-0.17-0.01c-1.25-0.07-3.5-0.99-4.5-6.43c-0.11-0.57,0.27-1.12,0.84-1.22
		c0.57-0.11,1.12,0.27,1.22,0.84c0.63,3.41,1.77,4.68,2.55,4.72c0.84,0.02,2.19-1.29,2.99-3.95c0.16-0.55,0.74-0.88,1.31-0.7
		c0.56,0.17,0.87,0.75,0.7,1.31C1990.59,1432.18,1988.7,1434.25,1986.66,1434.25z"/>
	<path class="st32" d="M1467.6,1224.28c-0.26,0-0.52-0.06-0.77-0.18c-22.1-10.76-46.16-10.33-46.42-10.32
		c-0.98,0-1.77-0.74-1.79-1.71c-0.02-0.97,0.74-1.77,1.71-1.79c0.94-0.03,22.46-0.42,44.07,8.86c-2.46-5.85-7.71-16.74-14.83-22.67
		c-0.74-0.62-0.84-1.72-0.22-2.46c0.62-0.74,1.72-0.84,2.46-0.22c10.75,8.96,17.17,27.4,17.44,28.18c0.23,0.67,0.04,1.41-0.49,1.88
		C1468.43,1224.13,1468.02,1224.28,1467.6,1224.28z"/>
	<path class="st28" d="M1551.56,1349.06c0,0,263.54-62.39,267.62-62.97c4.08-0.58,0.58-23.91-6.41-40.81
		c-7-16.91-18.66-30.32-27.4-64.72c-29.74,10.49-72.3,9.33-85.71,6.41c9.33,34.98,7.58,51.89-7.58,59.47
		C1676.92,1254.02,1513.66,1354.3,1551.56,1349.06z"/>
	<path class="st32" d="M1724.05,1191.06c-13.43,0-27.22-1.45-40.06-5.33c-0.54-0.16-0.97-0.58-1.15-1.12l-58.3-173.75
		c-0.31-0.92,0.19-1.91,1.1-2.22c0.92-0.3,1.91,0.19,2.22,1.1l58.02,172.89c44.32,12.97,100.08-3.34,110.59-6.67
		c-1.8-4.48-3.57-8.66-5.31-12.72c-14.8-34.77-26.48-62.24-15.11-199.73c12.59-152.17-66.94-265.65-76.36-273.73
		c-0.73-0.63-0.82-1.73-0.19-2.46c0.63-0.73,1.74-0.82,2.46-0.19c9.56,8.19,90.27,123.11,77.57,276.67
		c-11.3,136.63,0.24,163.74,14.85,198.07c1.96,4.62,3.99,9.37,6.03,14.54c0.18,0.44,0.16,0.94-0.04,1.37
		c-0.2,0.43-0.57,0.77-1.02,0.92C1798.87,1178.88,1763.01,1191.06,1724.05,1191.06z"/>
	<path class="st15" d="M1812.77,1245.27c-1.47-3.55-3.15-6.94-4.96-10.41c-9.38,30.1-89.94,39.9-108.74,41.89
		c-15.53,1.65-5.25-12.84-17.85-24.16c-39.76,23.45-163.13,101.09-129.66,96.46c0,0,263.54-62.39,267.62-62.97
		C1823.26,1285.5,1819.77,1262.18,1812.77,1245.27z"/>
	<path class="st15" d="M1392.38,1840.32c-0.65-3.78-1.55-7.46-2.55-11.24c-15.76,27.3-96.51,19.17-115.29,16.98
		c-15.51-1.8-2.3-13.68-12.11-27.49c-43.93,14.14-181.35,62.79-147.68,65.62c0,0,270.81-2.97,274.92-2.64
		C1393.78,1881.87,1395.49,1858.35,1392.38,1840.32z"/>
	<rect x="1604.62" y="352.62" class="st33" width="103.78" height="95.62"/>
	<path class="st34" d="M1563.81,299.57h93.87c0,0-8.16,71.13,10.49,74.63h-90.37C1558.56,360.2,1563.81,299.57,1563.81,299.57z"/>
	<path class="st34" d="M683.61,1470.08h93.87c0,0-8.16,71.13,10.49,74.63h-90.37C678.36,1530.71,683.61,1470.08,683.61,1470.08z"/>
	<path class="st2" d="M1285.69,289.07h93.87c0,0-8.16,71.13,10.49,74.63h-90.37C1280.44,349.71,1285.69,289.07,1285.69,289.07z"/>
	<rect x="913.12" y="367.2" class="st3" width="125.36" height="109.61"/>
	<path class="st35" d="M1046.64,308.89h-76.96c0,0-11.08,55.97,30.9,92.12h76.96C1035.56,364.87,1046.64,308.89,1046.64,308.89z"/>
	<path class="st36" d="M1077.54,401.02c30.9-8.16,16.91-37.32,16.91-37.32h-76.96c0,0,13.99,29.15-16.91,37.32H1077.54z"/>
	<path class="st4" d="M1474.31,301.9h-111.95c0,0-11.08,55.97,30.9,92.12h111.95C1463.23,357.87,1474.31,301.9,1474.31,301.9z"/>
	<path class="st12" d="M1505.21,394.02c30.9-8.16,16.91-37.32,16.91-37.32h-111.95c0,0,13.99,29.15-16.91,37.32H1505.21z"/>
	<path class="st35" d="M638.13,1083.96l-87.55,69.76c0,0,26.22,50.68,81.58,52.79l87.55-69.76
		C664.35,1134.64,638.13,1083.96,638.13,1083.96z"/>
	<path class="st36" d="M719.71,1136.75c19.08-25.64-10.03-39.72-10.03-39.72l-87.55,69.76c0,0,29.11,14.08,10.03,39.72
		L719.71,1136.75z"/>
	<path class="st12" d="M1839.3,513.41l-71.52,56.99c0,0,21.42,41.4,66.64,43.12l71.52-56.99
		C1860.72,554.81,1839.3,513.41,1839.3,513.41z"/>
	<path class="st37" d="M1909.64,554.07c15.59-20.95-8.19-32.45-8.19-32.45l-71.52,56.99c0,0,23.78,11.5,8.19,32.45L1909.64,554.07z"
		/>
	<rect x="932.36" y="556.69" class="st38" width="101.45" height="99.12"/>
	<rect x="909.04" y="631.32" class="st4" width="89.79" height="85.13"/>
	<rect x="1139.93" y="744.43" class="st33" width="99.12" height="86.29"/>
	<rect x="1226.22" y="722.28" class="st36" width="115.44" height="85.13"/>
	<rect x="1378.98" y="752.6" class="st3" width="96.79" height="90.96"/>
	<g>
		<polygon class="st18" points="770.23,864.23 776.15,921.93 941.94,923.55 932.25,829.01 		"/>
		<polygon class="st12" points="775.58,916.35 935.78,917.93 927.36,835.76 770.82,869.98 		"/>
		<polygon class="st15" points="941.94,923.55 1129.17,922.87 1119.48,828.33 932.25,829.01 		"/>
		
			<ellipse transform="matrix(0.7071 -0.7071 0.7071 0.7071 -327.0639 957.2847)" class="st17" cx="992.01" cy="873.44" rx="32.4" ry="32.4"/>
		
			<ellipse transform="matrix(0.6313 -0.7755 0.7755 0.6313 -311.6405 1091.3446)" class="st15" cx="992.01" cy="873.44" rx="21.29" ry="21.29"/>
	</g>
</g>
</svg>
